<!-- Generator: Adobe Illustrator 21.0.2, SVG Export Plug-In  -->
<svg version="1.1"
	 xmlns="http://www.w3.org/2000/svg" xmlns:xlink="http://www.w3.org/1999/xlink" xmlns:a="http://ns.adobe.com/AdobeSVGViewerExtensions/3.0/"
	 x="0px" y="0px" width="229.7px" height="49.2px" viewBox="0 0 229.7 49.2" style="enable-background:new 0 0 229.7 49.2;"
	 xml:space="preserve">
<style type="text/css">
	.st0{fill-rule:evenodd;clip-rule:evenodd;fill:#EE3134;}
	.st1{fill-rule:evenodd;clip-rule:evenodd;}
</style>
<defs>
</defs>
<g>
	<polyline class="st0" points="22.1,4.9 22.1,0 0,0 0,4.9 7.6,4.9 7.6,26.3 14.4,26.3 14.4,4.9 22.1,4.9 	"/>
	<path class="st0" d="M107.3,26.3c-0.2-1.7-0.3-3.1-0.3-4v-8.8c0-3.7-2.7-6-6.3-6c-2.6,0-4.8,1.2-6.1,3.2c-0.8-2-3-3.1-5.1-3.1
		c-2.5,0-4.7,0.8-5.9,3.1L83.5,8h-6.3v18.3h6.5v-11c0-0.6-0.3-3.7,2.7-3.7c2,0,2.5,1.8,2.5,3.5v11.2h6.4v-11c0-0.6-0.3-3.7,2.7-3.7
		c2,0,2.5,1.8,2.5,3.5v11.2H107.3z"/>
	<path class="st0" d="M75.7,13.4V7.8c-2.8,0-5,0.9-5.8,3.7L69.8,8h-6.5c0.1,1.5,0.1,3.5,0.1,4.7v13.6h6.5v-8c0-3,0.9-4.9,4.4-4.9
		C74.8,13.3,75.2,13.3,75.7,13.4z"/>
	<path class="st0" d="M118.4,7.5c-6,0-9.9,3.3-9.9,9.6c0,6.5,3.9,9.7,9.9,9.7s9.9-3.2,9.9-9.7C128.3,10.8,124.4,7.5,118.4,7.5z
		 M118.4,11.3c2.7,0,3.2,2.8,3.2,5.7c0,3.3-0.6,6-3.2,6c-2.7,0-3.2-2.6-3.2-6C115.2,14.1,115.7,11.3,118.4,11.3L118.4,11.3z"/>
	<path class="st0" d="M42.1,26.3c-0.2-1.7-0.3-3-0.3-4v-8.8c0-3.7-2.7-6-6.3-6c-1.1,0-2.1,0.2-3.1,0.6c-0.8,0.4-1.6,1-2.3,1.9V0
		h-6.5v26.3h6.5v-11c0-0.6-0.3-3.7,2.7-3.7c2,0,2.5,1.8,2.5,3.5v11.2H42.1z"/>
	<path class="st0" d="M61.9,18.4c0-6.6-1.9-10.9-9.2-10.9c-5.8,0-9.2,3.6-9.2,9.1c0,6.8,2.4,10.2,9.6,10.2c2.2,0,4.2-0.5,5.7-1.5
		c1.6-1.1,2.9-2.7,3.1-5h-6.1c-0.2,1.7-1.2,2.8-3.1,2.8c-2.5,0-3-2.4-2.9-4.7H61.9z M55.7,14.9h-6c0.1-1.9,0.6-3.9,3-4
		c1.1,0,1.8,0.5,2.3,1.3C55.5,12.9,55.7,13.9,55.7,14.9L55.7,14.9z"/>
	<path class="st0" d="M229.7,13V7.5c-2.8,0-5,0.9-5.8,3.7L223.8,8h-6.5c0.1,1.5,0.1,3.5,0.1,4.7v13.6h6.5v-8c0-3,0.9-5.2,4.4-5.3
		C228.8,13,229.2,13,229.7,13"/>
	<path class="st0" d="M196,26.3c-0.2-1.7-0.3-3-0.3-4v-8.8c0-3.7-2.7-6-6.3-6c-1.1,0-2.1,0.2-3,0.6c-0.8,0.4-1.7,1-2.4,1.9V0h-6.5
		v26.3h6.5v-11c0-0.6-0.3-3.7,2.7-3.7c2,0,2.5,1.8,2.5,3.5v11.2H196z"/>
	<path class="st0" d="M176,20.8c0-2.8-1.5-4.2-3.6-5c-3.9-1.4-6.8-1.5-6.8-2.9c0-1.1,0.6-1.7,1.7-1.7c0.8,0,1.4,0.2,1.7,0.6
		c0.3,0.4,0.5,0.9,0.5,1.7h6.2c-0.1-4.8-3.9-6.1-8.1-6.1c-3.5,0-8.1,1.2-8.1,5.6c0,6.4,10.4,4.7,10.4,8.2c0,1.2-1,1.7-2.3,1.7
		c-0.7,0-1.3-0.4-1.7-0.9c-0.4-0.5-0.5-1.2-0.4-1.8h-6.2c-0.1,5.5,3.9,6.4,8.4,6.4C171.9,26.8,176,25.3,176,20.8z"/>
	<path class="st0" d="M215.8,18.4c0-6.6-1.9-10.9-9.2-10.9c-5.8,0-9.2,3.6-9.2,9.1c0,6.8,2.4,10.2,9.6,10.2c2.2,0,4.2-0.5,5.7-1.5
		c1.6-1.1,2.9-2.7,3.1-5h-6.1c-0.2,1.7-1.2,2.8-3.1,2.8c-2.5,0-3-2.4-2.9-4.7H215.8z M209.7,14.9h-6c0.1-1.9,0.6-3.9,3-4
		c1.1,0,1.8,0.5,2.3,1.3C209.4,12.9,209.7,13.9,209.7,14.9L209.7,14.9z"/>
	<rect x="151.2" y="8" class="st0" width="6.5" height="18.3"/>
	<polygon class="st0" points="149.2,4.8 150.7,0 133.3,0 133.3,26.3 140.1,26.3 140.1,16 145.7,16 147.2,11.1 140.1,11.1 140.1,4.8 
			"/>
	<polygon class="st0" points="157.7,4.8 159.2,0 152.8,0 151.3,4.8 	"/>
</g>
<g>
	<rect x="59.5" y="34" class="st1" width="2.4" height="14.9"/>
	<path class="st1" d="M219.5,49.2c-5,0-8.7-2.8-8.7-7.6c0-4.9,4.2-7.9,8.8-7.9c1.7,0,3.5,0.5,4.7,1.3l-1.2,1.5c-1.1-0.6-2.2-1-3.4-1
		c-1.8,0-3.5,0.5-4.7,1.8c-1,1.1-1.5,2.4-1.5,4.4c0,2.1,0.6,3.2,1.8,4.3c1.1,1.1,2.9,1.4,4.6,1.4c1.4,0,2.7-0.5,3.8-1.1l1.2,1.4
		C223.5,48.6,221.5,49.2,219.5,49.2z"/>
	<rect x="194.5" y="34" class="st1" width="2.4" height="14.9"/>
	<polygon class="st1" points="140.7,35.8 135.2,35.8 135.2,48.9 132.9,48.9 132.9,35.8 127.4,35.8 127.4,34 141,34 	"/>
	<path class="st1" d="M16.9,48.4c-1.1,0.6-2.6,0.8-4.2,0.8c-2.1,0-4.2-0.5-6-1.3l1-1.7c1.7,0.9,3.4,1.3,5.2,1.3c1.2,0,2-0.2,2.7-0.6
		c0.9-0.5,1.3-1.1,1.3-1.9c0-1.2-1-2-3.3-2.6l-2.4-0.6c-2.4-0.6-3.9-2.1-3.9-3.8c0-2.5,2.5-4.3,6.1-4.3c2.1,0,4.3,0.5,5.7,1.4
		L18,36.6c-1.5-0.8-3-1.2-4.5-1.2c-2.1,0-3.6,0.8-3.6,2.2c0,1.1,0.9,1.7,3,2.2l2.2,0.5c1.3,0.3,2.6,0.8,3.3,1.5
		c0.7,0.6,1.2,1.7,1.2,2.7C19.6,46,18.6,47.5,16.9,48.4z"/>
	<path class="st1" d="M112.4,48.9l-5.9-7.9c-1.1-1.5-3-4.4-3-4.4s0.2,2.5,0.2,4.7l0.1,7.6h-2.4V34h2.8l6,8.1
		c1.2,1.6,2.8,4.1,2.8,4.1s-0.4-2.7-0.4-4.7l-0.1-7.5h2.3v14.9H112.4z"/>
	<rect x="153.2" y="34" class="st1" width="2.4" height="14.9"/>
	<polygon class="st1" points="181.5,35.7 173.3,35.7 173.3,40.2 180.3,40.2 180.3,41.9 173.3,41.9 173.3,48.9 171,48.9 171,34 
		181.8,34 	"/>
	<polygon class="st1" points="77.2,48.9 77.2,34 88.2,34 87.9,35.8 79.6,35.8 79.6,40.2 86.7,40.2 86.7,42 79.6,42 79.6,47 88.5,47 
		88.5,48.9 	"/>
	<path class="st1" d="M41.1,49.2c-5,0-8.7-2.8-8.7-7.6c0-4.9,4.2-7.9,8.8-7.9c1.7,0,3.5,0.5,4.7,1.3l-1.2,1.5c-1.1-0.6-2.2-1-3.4-1
		c-1.8,0-3.5,0.5-4.7,1.8c-1,1.1-1.5,2.4-1.5,4.4c0,2.1,0.6,3.2,1.8,4.3c1.1,1.1,2.9,1.4,4.6,1.4c1.4,0,2.7-0.5,3.8-1.1l1.2,1.4
		C45.1,48.6,43.1,49.2,41.1,49.2z"/>
</g>
</svg>
