<!-- Generator: Adobe Illustrator 21.0.2, SVG Export Plug-In  -->
<svg version="1.1"
	 xmlns="http://www.w3.org/2000/svg" xmlns:xlink="http://www.w3.org/1999/xlink" xmlns:a="http://ns.adobe.com/AdobeSVGViewerExtensions/3.0/"
	 x="0px" y="0px" width="127.2px" height="28.1px" viewBox="0 0 127.2 28.1" style="enable-background:new 0 0 127.2 28.1;"
	 xml:space="preserve">
<style type="text/css">
	.st0{fill:#FFFFFF;}
</style>
<defs>
</defs>
<g>
	<rect y="5.6" class="st0" width="3.6" height="16.1"/>
	<path class="st0" d="M5.9,5.6h3.4v2.4L9.3,8c0.5-0.9,1.2-1.6,2.1-2.1c0.9-0.5,1.8-0.8,2.9-0.8c1.8,0,3.2,0.5,4.2,1.4
		c1,0.9,1.5,2.3,1.5,4.1v11.1h-3.6V11.6c0-1.3-0.3-2.2-0.8-2.8c-0.5-0.6-1.3-0.9-2.3-0.9c-0.6,0-1.1,0.1-1.6,0.3
		c-0.5,0.2-0.9,0.5-1.2,0.9c-0.3,0.4-0.6,0.8-0.8,1.4c-0.2,0.5-0.3,1.1-0.3,1.7v9.5H5.9V5.6z"/>
	<path class="st0" d="M20,5.6h3.9L28,18h0.1L32,5.6h3.7l-5.8,16.1h-4L20,5.6z"/>
	<polygon class="st0" points="37.9,0 41.5,0 40.5,3.4 37,3.4 	"/>
	<polygon class="st0" points="1,0 4.5,0 3.6,3.4 0,3.4 	"/>
	<rect x="37" y="5.6" class="st0" width="3.6" height="16.1"/>
	<path class="st0" d="M42,5.6h2.7v-3l3.6-1.9v4.8h3.2v2.7h-3.2v8.6c0,0.4,0,0.7,0,1c0,0.3,0.1,0.5,0.2,0.7c0.1,0.2,0.3,0.3,0.5,0.4
		c0.2,0.1,0.5,0.1,0.9,0.1c0.2,0,0.5,0,0.7,0c0.2,0,0.5,0,0.7-0.1v2.7c-0.4,0-0.8,0.1-1.2,0.1c-0.4,0-0.8,0.1-1.2,0.1
		c-0.9,0-1.7-0.1-2.3-0.3c-0.6-0.2-1-0.4-1.3-0.8c-0.3-0.3-0.5-0.8-0.7-1.3c-0.1-0.5-0.2-1.1-0.2-1.8V8.2H42V5.6z"/>
	<path class="st0" d="M53.3,5.6h3.3v3.1h0.1c0.1-0.4,0.3-0.9,0.6-1.3C57.6,7,58,6.6,58.4,6.3c0.4-0.3,0.9-0.6,1.4-0.8
		c0.5-0.2,1.1-0.3,1.6-0.3c0.4,0,0.7,0,0.9,0s0.3,0,0.5,0.1v3.4c-0.2,0-0.5-0.1-0.8-0.1c-0.3,0-0.5,0-0.8,0c-0.6,0-1.2,0.1-1.7,0.4
		c-0.5,0.2-1,0.6-1.4,1.1c-0.4,0.5-0.7,1-0.9,1.7c-0.2,0.7-0.3,1.5-0.3,2.4v7.7h-3.6V5.6z"/>
	<path class="st0" d="M70.4,22.1c-1.3,0-2.4-0.2-3.4-0.6c-1-0.4-1.9-1-2.6-1.8c-0.7-0.7-1.2-1.6-1.6-2.7c-0.4-1-0.5-2.2-0.5-3.4
		c0-1.2,0.2-2.4,0.5-3.4c0.4-1,0.9-1.9,1.6-2.7C65.1,6.8,66,6.2,67,5.8c1-0.4,2.2-0.6,3.4-0.6c1.3,0,2.4,0.2,3.4,0.6
		c1,0.4,1.9,1,2.6,1.8c0.7,0.7,1.2,1.6,1.6,2.7c0.4,1,0.5,2.2,0.5,3.4c0,1.2-0.2,2.4-0.5,3.4c-0.4,1-0.9,1.9-1.6,2.7
		c-0.7,0.7-1.6,1.3-2.6,1.8C72.9,21.9,71.7,22.1,70.4,22.1z M70.4,19.3c0.8,0,1.5-0.2,2.1-0.5c0.6-0.3,1.1-0.8,1.4-1.3
		c0.4-0.5,0.7-1.1,0.8-1.8c0.2-0.7,0.3-1.4,0.3-2.1c0-0.7-0.1-1.4-0.3-2.1c-0.2-0.7-0.5-1.3-0.8-1.8c-0.4-0.5-0.9-1-1.4-1.3
		c-0.6-0.3-1.3-0.5-2.1-0.5c-0.8,0-1.5,0.2-2.1,0.5c-0.6,0.3-1.1,0.8-1.4,1.3c-0.4,0.5-0.7,1.1-0.8,1.8c-0.2,0.7-0.3,1.4-0.3,2.1
		c0,0.7,0.1,1.4,0.3,2.1c0.2,0.7,0.5,1.3,0.8,1.8c0.4,0.5,0.9,1,1.4,1.3C69,19.2,69.6,19.3,70.4,19.3z"/>
	<path class="st0" d="M95.2,20.9c0,2.4-0.7,4.3-2,5.4c-1.4,1.2-3.3,1.8-5.9,1.8c-0.8,0-1.6-0.1-2.5-0.2c-0.8-0.2-1.6-0.4-2.2-0.8
		c-0.7-0.4-1.2-0.9-1.7-1.6c-0.5-0.6-0.7-1.4-0.8-2.4h3.6c0.1,0.5,0.3,0.9,0.5,1.2c0.2,0.3,0.5,0.6,0.9,0.7c0.3,0.2,0.7,0.3,1.1,0.3
		c0.4,0.1,0.9,0.1,1.3,0.1c1.4,0,2.5-0.4,3.2-1.1c0.7-0.7,1-1.7,1-3.1v-2.5h-0.1c-0.5,0.9-1.2,1.6-2,2.1c-0.9,0.5-1.8,0.7-2.8,0.7
		c-1.3,0-2.4-0.2-3.3-0.7c-0.9-0.4-1.7-1.1-2.2-1.8s-1-1.7-1.3-2.7c-0.3-1-0.4-2.1-0.4-3.3c0-1.1,0.2-2.1,0.5-3.1
		c0.3-1,0.8-1.8,1.4-2.6c0.6-0.7,1.4-1.3,2.3-1.8c0.9-0.4,1.9-0.7,3.1-0.7c1,0,2,0.2,2.8,0.6c0.9,0.4,1.5,1.1,2,2h0.1V5.6h3.6V20.9z
		 M87.3,18.9c0.8,0,1.5-0.2,2-0.5c0.6-0.3,1-0.7,1.3-1.3c0.3-0.5,0.6-1.1,0.7-1.8c0.2-0.7,0.2-1.4,0.2-2c0-0.7-0.1-1.4-0.2-2
		c-0.2-0.6-0.4-1.2-0.8-1.7c-0.3-0.5-0.8-0.9-1.3-1.2c-0.6-0.3-1.2-0.4-2-0.4c-0.8,0-1.5,0.2-2,0.5c-0.5,0.3-1,0.8-1.3,1.3
		c-0.3,0.5-0.6,1.1-0.7,1.8c-0.1,0.7-0.2,1.3-0.2,2s0.1,1.3,0.2,2c0.2,0.6,0.4,1.2,0.8,1.7c0.3,0.5,0.8,0.9,1.3,1.2
		C85.9,18.7,86.6,18.9,87.3,18.9z"/>
	<path class="st0" d="M100,14.6c0,0.6,0.1,1.2,0.3,1.8c0.2,0.6,0.4,1.1,0.8,1.5c0.4,0.4,0.8,0.8,1.3,1c0.5,0.3,1.2,0.4,1.9,0.4
		c1,0,1.9-0.2,2.5-0.7c0.6-0.4,1.1-1.1,1.4-2h3.4c-0.2,0.9-0.5,1.7-1,2.3c-0.5,0.7-1,1.3-1.7,1.7c-0.6,0.5-1.4,0.8-2.2,1.1
		c-0.8,0.2-1.6,0.4-2.5,0.4c-1.3,0-2.4-0.2-3.4-0.6c-1-0.4-1.8-1-2.5-1.7c-0.7-0.7-1.2-1.6-1.5-2.7c-0.3-1-0.5-2.2-0.5-3.4
		c0-1.1,0.2-2.2,0.5-3.3c0.4-1,0.9-1.9,1.6-2.7c0.7-0.8,1.5-1.4,2.5-1.9c1-0.5,2-0.7,3.2-0.7c1.3,0,2.4,0.3,3.4,0.8
		c1,0.5,1.8,1.2,2.5,2.1c0.7,0.9,1.1,1.9,1.5,3c0.3,1.1,0.4,2.3,0.2,3.5H100z M108.3,12.2c0-0.6-0.2-1.1-0.4-1.6
		c-0.2-0.5-0.5-1-0.8-1.4c-0.3-0.4-0.8-0.7-1.2-0.9c-0.5-0.2-1-0.4-1.6-0.4c-0.6,0-1.2,0.1-1.7,0.3c-0.5,0.2-0.9,0.5-1.3,0.9
		c-0.4,0.4-0.7,0.8-0.9,1.4c-0.2,0.5-0.3,1.1-0.4,1.7H108.3z"/>
	<path class="st0" d="M113.1,5.6h3.4v2.4l0.1,0.1c0.5-0.9,1.2-1.6,2.1-2.1c0.9-0.5,1.8-0.8,2.9-0.8c1.8,0,3.2,0.5,4.2,1.4
		c1,0.9,1.5,2.3,1.5,4.1v11.1h-3.6V11.6c0-1.3-0.3-2.2-0.8-2.8c-0.5-0.6-1.3-0.9-2.3-0.9c-0.6,0-1.1,0.1-1.6,0.3
		c-0.5,0.2-0.9,0.5-1.2,0.9c-0.3,0.4-0.6,0.8-0.8,1.4c-0.2,0.5-0.3,1.1-0.3,1.7v9.5h-3.6V5.6z"/>
</g>
</svg>
